<svg id="visual" viewBox="0 0 900 600" width="900" height="600" xmlns="http://www.w3.org/2000/svg" xmlns:xlink="http://www.w3.org/1999/xlink" version="1.1"><g stroke-width="1" stroke-linejoin="bevel"><path d="M410 298L391 369L495 337Z" fill="#071a29" stroke="#071a29"></path><path d="M391 369L497 389L495 337Z" fill="#092336" stroke="#092336"></path><path d="M410 298L323 260L391 369Z" fill="#081d2d" stroke="#081d2d"></path><path d="M497 389L580 306L495 337Z" fill="#0a263a" stroke="#0a263a"></path><path d="M495 337L527 186L410 298Z" fill="#092336" stroke="#092336"></path><path d="M410 298L388 160L323 260Z" fill="#082031" stroke="#082031"></path><path d="M420 522L464 499L391 369Z" fill="#071a29" stroke="#071a29"></path><path d="M391 369L464 499L497 389Z" fill="#092336" stroke="#092336"></path><path d="M497 389L596 425L580 306Z" fill="#0a293f" stroke="#0a293f"></path><path d="M464 499L596 425L497 389Z" fill="#0b2f48" stroke="#0b2f48"></path><path d="M335 494L420 522L391 369Z" fill="#092336" stroke="#092336"></path><path d="M580 306L527 186L495 337Z" fill="#041420" stroke="#041420"></path><path d="M323 260L263 382L391 369Z" fill="#0c324d" stroke="#0c324d"></path><path d="M263 382L335 494L391 369Z" fill="#092336" stroke="#092336"></path><path d="M527 186L388 160L410 298Z" fill="#041420" stroke="#041420"></path><path d="M527 186L426 134L388 160Z" fill="#0c324d" stroke="#0c324d"></path><path d="M580 306L593 195L527 186Z" fill="#0c324d" stroke="#0c324d"></path><path d="M527 186L486 106L426 134Z" fill="#0b2c44" stroke="#0b2c44"></path><path d="M674 295L593 195L580 306Z" fill="#0a263a" stroke="#0a263a"></path><path d="M221 200L227 273L323 260Z" fill="#041420" stroke="#041420"></path><path d="M323 260L227 273L263 382Z" fill="#092336" stroke="#092336"></path><path d="M464 499L569 539L596 425Z" fill="#041420" stroke="#041420"></path><path d="M460 600L569 539L464 499Z" fill="#0b2c44" stroke="#0b2c44"></path><path d="M669 503L676 368L596 425Z" fill="#082031" stroke="#082031"></path><path d="M596 425L676 368L580 306Z" fill="#082031" stroke="#082031"></path><path d="M676 368L674 295L580 306Z" fill="#0a263a" stroke="#0a263a"></path><path d="M612 84L486 106L527 186Z" fill="#081d2d" stroke="#081d2d"></path><path d="M287 134L265 164L388 160Z" fill="#0a263a" stroke="#0a263a"></path><path d="M388 160L265 164L323 260Z" fill="#061724" stroke="#061724"></path><path d="M287 134L388 160L364 0Z" fill="#081d2d" stroke="#081d2d"></path><path d="M227 273L194 397L263 382Z" fill="#0a293f" stroke="#0a293f"></path><path d="M263 382L200 535L335 494Z" fill="#0a263a" stroke="#0a263a"></path><path d="M368 600L460 600L420 522Z" fill="#092336" stroke="#092336"></path><path d="M420 522L460 600L464 499Z" fill="#0a263a" stroke="#0a263a"></path><path d="M368 600L420 522L335 494Z" fill="#0a293f" stroke="#0a293f"></path><path d="M364 0L388 160L426 134Z" fill="#081d2d" stroke="#081d2d"></path><path d="M265 164L221 200L323 260Z" fill="#081d2d" stroke="#081d2d"></path><path d="M227 273L90 284L194 397Z" fill="#0b2f48" stroke="#0b2f48"></path><path d="M179 112L221 200L265 164Z" fill="#0b2f48" stroke="#0b2f48"></path><path d="M276 600L368 600L335 494Z" fill="#082031" stroke="#082031"></path><path d="M635 600L669 503L569 539Z" fill="#092336" stroke="#092336"></path><path d="M569 539L669 503L596 425Z" fill="#071a29" stroke="#071a29"></path><path d="M674 295L693 226L593 195Z" fill="#061724" stroke="#061724"></path><path d="M593 195L612 84L527 186Z" fill="#0a293f" stroke="#0a293f"></path><path d="M770 299L693 226L674 295Z" fill="#092336" stroke="#092336"></path><path d="M770 299L674 295L676 368Z" fill="#061724" stroke="#061724"></path><path d="M200 535L276 600L335 494Z" fill="#0c324d" stroke="#0c324d"></path><path d="M194 397L200 535L263 382Z" fill="#081d2d" stroke="#081d2d"></path><path d="M679 121L612 84L593 195Z" fill="#041420" stroke="#041420"></path><path d="M232 0L179 112L287 134Z" fill="#071a29" stroke="#071a29"></path><path d="M460 600L635 600L569 539Z" fill="#092336" stroke="#092336"></path><path d="M693 226L679 121L593 195Z" fill="#0b2c44" stroke="#0b2c44"></path><path d="M200 535L230 600L276 600Z" fill="#071a29" stroke="#071a29"></path><path d="M770 473L676 368L669 503Z" fill="#0c324d" stroke="#0c324d"></path><path d="M803 394L770 299L676 368Z" fill="#0a293f" stroke="#0a293f"></path><path d="M693 226L776 179L679 121Z" fill="#092336" stroke="#092336"></path><path d="M179 112L118 233L221 200Z" fill="#071a29" stroke="#071a29"></path><path d="M221 200L118 233L227 273Z" fill="#092336" stroke="#092336"></path><path d="M194 397L123 534L200 535Z" fill="#081d2d" stroke="#081d2d"></path><path d="M364 0L426 134L486 106Z" fill="#0a263a" stroke="#0a263a"></path><path d="M287 134L179 112L265 164Z" fill="#0a293f" stroke="#0a293f"></path><path d="M532 0L364 0L486 106Z" fill="#0b2c44" stroke="#0b2c44"></path><path d="M738 600L770 473L669 503Z" fill="#081d2d" stroke="#081d2d"></path><path d="M0 324L90 284L0 212Z" fill="#0b2c44" stroke="#0b2c44"></path><path d="M118 233L90 284L227 273Z" fill="#0b2c44" stroke="#0b2c44"></path><path d="M572 0L532 0L612 84Z" fill="#081d2d" stroke="#081d2d"></path><path d="M612 84L532 0L486 106Z" fill="#0c324d" stroke="#0c324d"></path><path d="M770 473L803 394L676 368Z" fill="#0a293f" stroke="#0a293f"></path><path d="M719 0L572 0L612 84Z" fill="#0c324d" stroke="#0c324d"></path><path d="M66 416L123 534L194 397Z" fill="#0a293f" stroke="#0a293f"></path><path d="M200 535L123 534L230 600Z" fill="#041420" stroke="#041420"></path><path d="M770 299L776 179L693 226Z" fill="#0b2f48" stroke="#0b2f48"></path><path d="M679 121L719 0L612 84Z" fill="#071a29" stroke="#071a29"></path><path d="M900 280L776 179L770 299Z" fill="#041420" stroke="#041420"></path><path d="M90 284L66 416L194 397Z" fill="#041420" stroke="#041420"></path><path d="M364 0L270 0L287 134Z" fill="#0c324d" stroke="#0c324d"></path><path d="M635 600L738 600L669 503Z" fill="#0b2f48" stroke="#0b2f48"></path><path d="M900 426L900 280L803 394Z" fill="#081d2d" stroke="#081d2d"></path><path d="M270 0L232 0L287 134Z" fill="#0a293f" stroke="#0a293f"></path><path d="M179 112L95 115L118 233Z" fill="#0a263a" stroke="#0a263a"></path><path d="M80 0L95 115L179 112Z" fill="#041420" stroke="#041420"></path><path d="M90 284L0 369L66 416Z" fill="#082031" stroke="#082031"></path><path d="M0 530L83 600L123 534Z" fill="#071a29" stroke="#071a29"></path><path d="M123 534L83 600L230 600Z" fill="#0c324d" stroke="#0c324d"></path><path d="M0 212L90 284L118 233Z" fill="#081d2d" stroke="#081d2d"></path><path d="M66 416L0 530L123 534Z" fill="#0b2f48" stroke="#0b2f48"></path><path d="M0 324L0 369L90 284Z" fill="#0a263a" stroke="#0a263a"></path><path d="M768 0L719 0L679 121Z" fill="#061724" stroke="#061724"></path><path d="M95 115L0 212L118 233Z" fill="#081d2d" stroke="#081d2d"></path><path d="M900 426L803 394L770 473Z" fill="#0a293f" stroke="#0a293f"></path><path d="M803 394L900 280L770 299Z" fill="#0a263a" stroke="#0a263a"></path><path d="M776 179L833 87L679 121Z" fill="#0b2c44" stroke="#0b2c44"></path><path d="M900 526L900 426L770 473Z" fill="#081d2d" stroke="#081d2d"></path><path d="M900 161L833 87L776 179Z" fill="#0a293f" stroke="#0a293f"></path><path d="M738 600L837 600L770 473Z" fill="#092336" stroke="#092336"></path><path d="M833 87L768 0L679 121Z" fill="#0a263a" stroke="#0a263a"></path><path d="M0 369L0 530L66 416Z" fill="#092336" stroke="#092336"></path><path d="M837 600L900 526L770 473Z" fill="#0b2f48" stroke="#0b2f48"></path><path d="M900 280L900 161L776 179Z" fill="#041420" stroke="#041420"></path><path d="M833 87L900 0L768 0Z" fill="#0a293f" stroke="#0a293f"></path><path d="M232 0L80 0L179 112Z" fill="#0a293f" stroke="#0a293f"></path><path d="M95 115L0 64L0 212Z" fill="#081d2d" stroke="#081d2d"></path><path d="M0 530L0 600L83 600Z" fill="#092336" stroke="#092336"></path><path d="M80 0L0 64L95 115Z" fill="#041420" stroke="#041420"></path><path d="M837 600L900 600L900 526Z" fill="#0a293f" stroke="#0a293f"></path><path d="M900 161L900 60L833 87Z" fill="#092336" stroke="#092336"></path><path d="M80 0L0 0L0 64Z" fill="#0b2c44" stroke="#0b2c44"></path><path d="M900 60L900 0L833 87Z" fill="#092336" stroke="#092336"></path></g></svg>