<svg id="visual" viewBox="0 0 900 600" width="900" height="600" xmlns="http://www.w3.org/2000/svg" xmlns:xlink="http://www.w3.org/1999/xlink" version="1.1"><rect x="0" y="0" width="900" height="600" fill="#041420"></rect><path d="M0 379L21.5 374.3C43 369.7 86 360.3 128.8 361.5C171.7 362.7 214.3 374.3 257.2 385.8C300 397.3 343 408.7 385.8 417.3C428.7 426 471.3 432 514.2 430.2C557 428.3 600 418.7 642.8 405C685.7 391.3 728.3 373.7 771.2 366.7C814 359.7 857 363.3 878.5 365.2L900 367L900 601L878.5 601C857 601 814 601 771.2 601C728.3 601 685.7 601 642.8 601C600 601 557 601 514.2 601C471.3 601 428.7 601 385.8 601C343 601 300 601 257.2 601C214.3 601 171.7 601 128.8 601C86 601 43 601 21.5 601L0 601Z" fill="#0c324d"></path><path d="M0 447L21.5 446.2C43 445.3 86 443.7 128.8 440.8C171.7 438 214.3 434 257.2 432C300 430 343 430 385.8 427.7C428.7 425.3 471.3 420.7 514.2 421.7C557 422.7 600 429.3 642.8 438.8C685.7 448.3 728.3 460.7 771.2 461.5C814 462.3 857 451.7 878.5 446.3L900 441L900 601L878.5 601C857 601 814 601 771.2 601C728.3 601 685.7 601 642.8 601C600 601 557 601 514.2 601C471.3 601 428.7 601 385.8 601C343 601 300 601 257.2 601C214.3 601 171.7 601 128.8 601C86 601 43 601 21.5 601L0 601Z" fill="#0b2c44"></path><path d="M0 496L21.5 495.3C43 494.7 86 493.3 128.8 485.8C171.7 478.3 214.3 464.7 257.2 458.5C300 452.3 343 453.7 385.8 459.7C428.7 465.7 471.3 476.3 514.2 476.5C557 476.7 600 466.3 642.8 469.8C685.7 473.3 728.3 490.7 771.2 499.2C814 507.7 857 507.3 878.5 507.2L900 507L900 601L878.5 601C857 601 814 601 771.2 601C728.3 601 685.7 601 642.8 601C600 601 557 601 514.2 601C471.3 601 428.7 601 385.8 601C343 601 300 601 257.2 601C214.3 601 171.7 601 128.8 601C86 601 43 601 21.5 601L0 601Z" fill="#0a263b"></path><path d="M0 481L21.5 485C43 489 86 497 128.8 499.2C171.7 501.3 214.3 497.7 257.2 495.2C300 492.7 343 491.3 385.8 497.3C428.7 503.3 471.3 516.7 514.2 521C557 525.3 600 520.7 642.8 520.8C685.7 521 728.3 526 771.2 522C814 518 857 505 878.5 498.5L900 492L900 601L878.5 601C857 601 814 601 771.2 601C728.3 601 685.7 601 642.8 601C600 601 557 601 514.2 601C471.3 601 428.7 601 385.8 601C343 601 300 601 257.2 601C214.3 601 171.7 601 128.8 601C86 601 43 601 21.5 601L0 601Z" fill="#082032"></path><path d="M0 558L21.5 554.5C43 551 86 544 128.8 538.5C171.7 533 214.3 529 257.2 527C300 525 343 525 385.8 525.8C428.7 526.7 471.3 528.3 514.2 528.5C557 528.7 600 527.3 642.8 531C685.7 534.7 728.3 543.3 771.2 546.2C814 549 857 546 878.5 544.5L900 543L900 601L878.5 601C857 601 814 601 771.2 601C728.3 601 685.7 601 642.8 601C600 601 557 601 514.2 601C471.3 601 428.7 601 385.8 601C343 601 300 601 257.2 601C214.3 601 171.7 601 128.8 601C86 601 43 601 21.5 601L0 601Z" fill="#071a29"></path></svg>